Coordinates
version=1
nRows=10
nColumns=22
inDegrees=yes

Units are S.I. units (second, meters, Newtons, ...)
If the header above contains a line with 'inDegrees', this indicates whether rotational values are in degrees (yes) or radians (no).

endheader
time	pelvis_tilt	pelvis_list	pelvis_rotation	pelvis_tx	pelvis_ty	pelvis_tz	hip_flexion_r	hip_adduction_r	hip_rotation_r	knee_angle_r	ankle_angle_r	subtalar_angle_r	hip_flexion_l	hip_adduction_l	hip_rotation_l	knee_angle_l	ankle_angle_l	subtalar_angle_l	lumbar_extension	lumbar_bending	lumbar_rotation
      0.01000000	     -0.26104615	     -3.85660083	     -5.71092453	     -1.09232314	      0.93572122	     -0.07427987	     -0.15039501	      2.45959694	      1.87860307	     -6.70513081	      3.29635190	      3.48950513	      0.10780026	     -7.09367980	    -13.35660485	    -12.33751153	      9.42364653	      4.74939748	     -3.79205007	      0.55596255	      0.98116188
      0.02000000	     -0.26900412	     -3.85708391	     -5.70784698	     -1.09205140	      0.93569862	     -0.07436191	     -0.15619062	      2.45520254	      1.88378834	     -6.71190722	      3.29612242	      3.48989335	      0.10030072	     -7.08933161	    -13.35600265	    -12.34137186	      9.42538877	      4.75071346	     -3.79240815	      0.56266554	      0.97591384
      0.03000000	     -0.26702758	     -3.85440049	     -5.70585211	     -1.09176032	      0.93568558	     -0.07444556	     -0.16796673	      2.44706913	      1.92284740	     -6.73158784	      3.30841794	      3.49357438	      0.07589238	     -7.07921059	    -13.35225547	    -12.33552520	      9.44479102	      4.76173706	     -3.81451498	      0.56425074	      0.92821809
      0.04000000	     -0.22932687	     -3.84329311	     -5.70902770	     -1.09137064	      0.93571670	     -0.07454795	     -0.24073777	      2.42211120	      1.96338261	     -6.71814222	      3.36356579	      3.50684041	     -0.00558356	     -7.05083822	    -13.34763569	    -12.30756602	      9.46428261	      4.80275700	     -3.86978842	      0.55249360	      0.92773450
      0.05000000	     -0.23182034	     -3.84119882	     -5.71280712	     -1.09098986	      0.93570252	     -0.07464420	     -0.25053552	      2.41325761	      1.98995745	     -6.74296103	      3.36296955	      3.50762426	     -0.03459088	     -7.04008847	    -13.35626456	    -12.29839505	      9.46360029	      4.80855730	     -3.88425203	      0.55675694	      0.89603234
      0.06000000	     -0.19102942	     -3.82164175	     -5.73166580	     -1.09054333	      0.93574359	     -0.07471963	     -0.32731212	      2.37907827	      2.05678134	     -6.73379032	      3.41809651	      3.51392196	     -0.13178872	     -7.00215932	    -13.37579211	    -12.25823055	      9.46021621	      4.83676602	     -3.94045930	      0.53152279	      0.91652865
      0.07000000	     -0.19319258	     -3.81917995	     -5.74395771	     -1.09014235	      0.93573140	     -0.07480471	     -0.33905751	      2.36974426	      2.08397985	     -6.75557873	      3.41825906	      3.51418340	     -0.16244109	     -6.99138765	    -13.38549125	    -12.25319692	      9.46005883	      4.84089784	     -3.95540948	      0.53679038	      0.88682286
      0.08000000	     -0.15279496	     -3.80036600	     -5.78077087	     -1.08968879	      0.93577359	     -0.07485014	     -0.41550538	      2.33717409	      2.16934874	     -6.74460628	      3.46994107	      3.51861842	     -0.25933191	     -6.95490845	    -13.42621611	    -12.22309600	      9.45741440	      4.86217885	     -4.00990859	      0.51209554	      0.92142530
      0.09000000	     -0.15403735	     -3.79660932	     -5.79837509	     -1.08930244	      0.93576089	     -0.07491393	     -0.42763970	      2.32682941	      2.20673746	     -6.76747385	      3.47190642	      3.51887304	     -0.28510733	     -6.94449082	    -13.43372358	    -12.22832258	      9.45945009	      4.86650739	     -4.02745741	      0.51339286	      0.89755526
      0.10000000	     -0.13325796	     -3.78224991	     -5.84845960	     -1.08887942	      0.93577300	     -0.07492515	     -0.47989633	      2.30244088	      2.30397437	     -6.75875363	      3.51820133	      3.52243901	     -0.34993846	     -6.91910004	    -13.48759700	    -12.22208901	      9.47003231	      4.88579290	     -4.06187378	      0.49555432	      0.93914538
